<mxfile host="Electron" agent="Mozilla/5.0 (Macintosh; Intel Mac OS X 10_15_7) AppleWebKit/537.36 (KHTML, like Gecko) draw.io/25.0.2 Chrome/128.0.6613.186 Electron/32.2.5 Safari/537.36" version="25.0.2">
  <diagram id="R2lEEEUBdFMjLlhIrx00" name="Page-1">
    <mxGraphModel dx="1185" dy="694" grid="1" gridSize="10" guides="1" tooltips="1" connect="1" arrows="1" fold="1" page="1" pageScale="1" pageWidth="850" pageHeight="1100" math="0" shadow="0" extFonts="Permanent Marker^https://fonts.googleapis.com/css?family=Permanent+Marker">
      <root>
        <mxCell id="0" />
        <mxCell id="1" parent="0" />
        <mxCell id="G5hnXp-sJQzL0B6UTcIg-3" style="edgeStyle=orthogonalEdgeStyle;rounded=0;orthogonalLoop=1;jettySize=auto;html=1;entryX=0;entryY=0.5;entryDx=0;entryDy=0;" edge="1" parent="1" source="G5hnXp-sJQzL0B6UTcIg-1" target="G5hnXp-sJQzL0B6UTcIg-2">
          <mxGeometry relative="1" as="geometry" />
        </mxCell>
        <mxCell id="G5hnXp-sJQzL0B6UTcIg-4" value="PostgreSQL connection" style="edgeLabel;html=1;align=center;verticalAlign=middle;resizable=0;points=[];" vertex="1" connectable="0" parent="G5hnXp-sJQzL0B6UTcIg-3">
          <mxGeometry x="-0.2581" y="1" relative="1" as="geometry">
            <mxPoint as="offset" />
          </mxGeometry>
        </mxCell>
        <mxCell id="G5hnXp-sJQzL0B6UTcIg-10" style="edgeStyle=orthogonalEdgeStyle;rounded=0;orthogonalLoop=1;jettySize=auto;html=1;entryX=0.5;entryY=0;entryDx=0;entryDy=0;" edge="1" parent="1" source="G5hnXp-sJQzL0B6UTcIg-1" target="G5hnXp-sJQzL0B6UTcIg-9">
          <mxGeometry relative="1" as="geometry" />
        </mxCell>
        <mxCell id="G5hnXp-sJQzL0B6UTcIg-1" value="Django App&lt;br&gt;Feedback Logger" style="rounded=1;whiteSpace=wrap;html=1;" vertex="1" parent="1">
          <mxGeometry x="290" y="270.5" width="120" height="60" as="geometry" />
        </mxCell>
        <mxCell id="G5hnXp-sJQzL0B6UTcIg-2" value="" style="image;aspect=fixed;perimeter=ellipsePerimeter;html=1;align=center;shadow=0;dashed=0;spacingTop=3;image=img/lib/active_directory/database.svg;" vertex="1" parent="1">
          <mxGeometry x="580" y="282" width="50" height="37" as="geometry" />
        </mxCell>
        <mxCell id="G5hnXp-sJQzL0B6UTcIg-5" value="" style="outlineConnect=0;dashed=0;verticalLabelPosition=bottom;verticalAlign=top;align=center;html=1;shape=mxgraph.aws3.cache_node;fillColor=#2E73B8;gradientColor=none;" vertex="1" parent="1">
          <mxGeometry x="580" y="340" width="50" height="50" as="geometry" />
        </mxCell>
        <mxCell id="G5hnXp-sJQzL0B6UTcIg-7" style="edgeStyle=orthogonalEdgeStyle;rounded=0;orthogonalLoop=1;jettySize=auto;html=1;entryX=0;entryY=0.5;entryDx=0;entryDy=0;entryPerimeter=0;jumpStyle=none;flowAnimation=0;shadow=0;" edge="1" parent="1" source="G5hnXp-sJQzL0B6UTcIg-1" target="G5hnXp-sJQzL0B6UTcIg-5">
          <mxGeometry relative="1" as="geometry">
            <Array as="points">
              <mxPoint x="370" y="365" />
            </Array>
          </mxGeometry>
        </mxCell>
        <mxCell id="G5hnXp-sJQzL0B6UTcIg-8" value="Redis Cache" style="edgeLabel;html=1;align=center;verticalAlign=middle;resizable=0;points=[];" vertex="1" connectable="0" parent="G5hnXp-sJQzL0B6UTcIg-7">
          <mxGeometry x="-0.01" y="2" relative="1" as="geometry">
            <mxPoint as="offset" />
          </mxGeometry>
        </mxCell>
        <mxCell id="G5hnXp-sJQzL0B6UTcIg-9" value="Shared Filesystem&lt;br&gt;(EFS)" style="rounded=0;whiteSpace=wrap;html=1;" vertex="1" parent="1">
          <mxGeometry x="290" y="420" width="120" height="60" as="geometry" />
        </mxCell>
      </root>
    </mxGraphModel>
  </diagram>
</mxfile>
